<mxfile host="Electron" modified="2023-06-17T07:25:52.634Z" agent="Mozilla/5.0 (X11; Linux x86_64) AppleWebKit/537.36 (KHTML, like Gecko) draw.io/21.4.0 Chrome/112.0.5615.204 Electron/24.5.1 Safari/537.36" etag="orclelftuQ53xaZKBfGm" version="21.4.0" type="device">
  <diagram name="Page-1" id="ZSkcajXZRbt3x14Z_4z5">
    <mxGraphModel dx="2634" dy="2443" grid="1" gridSize="10" guides="1" tooltips="1" connect="1" arrows="1" fold="1" page="1" pageScale="1" pageWidth="1200" pageHeight="1600" math="0" shadow="0">
      <root>
        <mxCell id="0" />
        <mxCell id="1" parent="0" />
        <mxCell id="YGuV6R9-KsbICo-k-Tc9-1" value="Passive Infrared Sensor" style="points=[[0.015,0.015,0],[0.5,0,0],[0.985,0.015,0],[1,0.22,0],[0.985,0.43,0],[0.73,0.85,0],[0.5,1,0],[0.285,0.85,0],[0.015,0.43,0],[0,0.22,0]];verticalLabelPosition=bottom;sketch=0;html=1;verticalAlign=top;aspect=fixed;align=center;pointerEvents=1;shape=mxgraph.cisco19.surveillance_camera;fillColor=#005073;strokeColor=none;" parent="1" vertex="1">
          <mxGeometry x="-103" y="799.5" width="64" height="50" as="geometry" />
        </mxCell>
        <mxCell id="YGuV6R9-KsbICo-k-Tc9-2" value="IP camera" style="points=[[0,0.5,0],[0.19,0.02,0],[0.59,0,0],[0.985,0.02,0],[1,0.5,0],[0.985,0.98,0],[0.59,1,0],[0.19,0.98,0]];verticalLabelPosition=bottom;sketch=0;html=1;verticalAlign=top;aspect=fixed;align=center;pointerEvents=1;shape=mxgraph.cisco19.camera;fillColor=#005073;strokeColor=none;flipV=0;flipH=0;horizontal=1;" parent="1" vertex="1">
          <mxGeometry x="-224.7" y="664" width="90" height="50" as="geometry" />
        </mxCell>
        <mxCell id="YGuV6R9-KsbICo-k-Tc9-3" value="" style="shadow=0;dashed=0;html=1;strokeColor=none;fillColor=#4495D1;labelPosition=center;verticalLabelPosition=bottom;verticalAlign=top;align=center;outlineConnect=0;shape=mxgraph.veeam.company_administrator;" parent="1" vertex="1">
          <mxGeometry x="-270.00000000000006" y="169.99999999999997" width="44.4" height="48.8" as="geometry" />
        </mxCell>
        <mxCell id="YGuV6R9-KsbICo-k-Tc9-5" value="A2D/ADC" style="endArrow=classic;html=1;rounded=0;exitX=1;exitY=0.22;exitDx=0;exitDy=0;exitPerimeter=0;entryX=0.16;entryY=0.17;entryDx=0;entryDy=0;entryPerimeter=0;" parent="1" source="YGuV6R9-KsbICo-k-Tc9-1" target="YGuV6R9-KsbICo-k-Tc9-18" edge="1">
          <mxGeometry x="-0.1429" y="19" width="50" height="50" relative="1" as="geometry">
            <mxPoint x="437" y="969.5" as="sourcePoint" />
            <mxPoint x="7" y="809.5" as="targetPoint" />
            <mxPoint as="offset" />
          </mxGeometry>
        </mxCell>
        <mxCell id="YGuV6R9-KsbICo-k-Tc9-9" value="" style="endArrow=classic;startArrow=classic;html=1;rounded=0;" parent="1" source="YGuV6R9-KsbICo-k-Tc9-15" target="YGuV6R9-KsbICo-k-Tc9-6" edge="1">
          <mxGeometry width="50" height="50" relative="1" as="geometry">
            <mxPoint x="110.00000000000006" y="498.5" as="sourcePoint" />
            <mxPoint x="-330.2" y="152.89999999999998" as="targetPoint" />
          </mxGeometry>
        </mxCell>
        <mxCell id="YGuV6R9-KsbICo-k-Tc9-11" value="" style="endArrow=classic;startArrow=classic;html=1;rounded=0;entryX=-0.014;entryY=0.82;entryDx=0;entryDy=0;entryPerimeter=0;" parent="1" source="YGuV6R9-KsbICo-k-Tc9-3" target="YGuV6R9-KsbICo-k-Tc9-10" edge="1">
          <mxGeometry width="50" height="50" relative="1" as="geometry">
            <mxPoint x="-265.2" y="78.89999999999998" as="sourcePoint" />
            <mxPoint x="-279.2" y="129.89999999999998" as="targetPoint" />
          </mxGeometry>
        </mxCell>
        <mxCell id="YGuV6R9-KsbICo-k-Tc9-13" value="event-processor" style="swimlane;startSize=23;" parent="1" vertex="1">
          <mxGeometry x="-123" y="-140" width="480" height="470" as="geometry" />
        </mxCell>
        <mxCell id="YGuV6R9-KsbICo-k-Tc9-10" value="Telegram Bot" style="verticalLabelPosition=bottom;html=1;verticalAlign=top;align=center;strokeColor=none;fillColor=#00BEF2;shape=mxgraph.azure.mobile;pointerEvents=1;" parent="YGuV6R9-KsbICo-k-Tc9-13" vertex="1">
          <mxGeometry x="40.5" y="290" width="35" height="50" as="geometry" />
        </mxCell>
        <mxCell id="YGuV6R9-KsbICo-k-Tc9-6" value="Flask Control Panel" style="outlineConnect=0;dashed=0;verticalLabelPosition=bottom;verticalAlign=top;align=center;html=1;shape=mxgraph.aws3.http_protocol;fillColor=#5294CF;gradientColor=none;" parent="YGuV6R9-KsbICo-k-Tc9-13" vertex="1">
          <mxGeometry x="33" y="370" width="50" height="46" as="geometry" />
        </mxCell>
        <mxCell id="YGuV6R9-KsbICo-k-Tc9-39" value="Amazon S3" style="sketch=0;outlineConnect=0;fontColor=#232F3E;gradientColor=none;strokeColor=#ffffff;fillColor=#232F3E;dashed=0;verticalLabelPosition=middle;verticalAlign=bottom;align=center;html=1;whiteSpace=wrap;fontSize=10;fontStyle=1;spacing=3;shape=mxgraph.aws4.productIcon;prIcon=mxgraph.aws4.s3;" parent="YGuV6R9-KsbICo-k-Tc9-13" vertex="1">
          <mxGeometry x="253" y="360" width="60" height="80" as="geometry" />
        </mxCell>
        <mxCell id="YGuV6R9-KsbICo-k-Tc9-42" value="SQLite" style="shape=datastore;whiteSpace=wrap;html=1;" parent="YGuV6R9-KsbICo-k-Tc9-13" vertex="1">
          <mxGeometry x="153" y="397" width="40" height="43" as="geometry" />
        </mxCell>
        <mxCell id="DSjT6oyzW38afCTZ1IZh-27" value="Amazon DynamoDB" style="sketch=0;outlineConnect=0;fontColor=#232F3E;gradientColor=none;strokeColor=#ffffff;fillColor=#232F3E;dashed=0;verticalLabelPosition=middle;verticalAlign=bottom;align=center;html=1;whiteSpace=wrap;fontSize=10;fontStyle=1;spacing=3;shape=mxgraph.aws4.productIcon;prIcon=mxgraph.aws4.dynamodb;" parent="YGuV6R9-KsbICo-k-Tc9-13" vertex="1">
          <mxGeometry x="143" y="300" width="60" height="90" as="geometry" />
        </mxCell>
        <mxCell id="DSjT6oyzW38afCTZ1IZh-28" value="audit trail" style="endArrow=classic;html=1;rounded=0;exitX=0.95;exitY=0.5;exitDx=0;exitDy=0;exitPerimeter=0;" parent="YGuV6R9-KsbICo-k-Tc9-13" source="YGuV6R9-KsbICo-k-Tc9-6" target="DSjT6oyzW38afCTZ1IZh-27" edge="1">
          <mxGeometry width="50" height="50" relative="1" as="geometry">
            <mxPoint x="433" y="300" as="sourcePoint" />
            <mxPoint x="293" y="240" as="targetPoint" />
          </mxGeometry>
        </mxCell>
        <mxCell id="DSjT6oyzW38afCTZ1IZh-29" value="config" style="endArrow=classic;html=1;rounded=0;exitX=0.95;exitY=0.5;exitDx=0;exitDy=0;exitPerimeter=0;entryX=0;entryY=0.5;entryDx=0;entryDy=0;" parent="YGuV6R9-KsbICo-k-Tc9-13" source="YGuV6R9-KsbICo-k-Tc9-6" target="YGuV6R9-KsbICo-k-Tc9-42" edge="1">
          <mxGeometry width="50" height="50" relative="1" as="geometry">
            <mxPoint x="433" y="300" as="sourcePoint" />
            <mxPoint x="483" y="250" as="targetPoint" />
          </mxGeometry>
        </mxCell>
        <mxCell id="DSjT6oyzW38afCTZ1IZh-30" value="backup" style="endArrow=classic;html=1;rounded=0;exitX=1;exitY=0.7;exitDx=0;exitDy=0;" parent="YGuV6R9-KsbICo-k-Tc9-13" source="YGuV6R9-KsbICo-k-Tc9-42" target="YGuV6R9-KsbICo-k-Tc9-39" edge="1">
          <mxGeometry width="50" height="50" relative="1" as="geometry">
            <mxPoint x="433" y="300" as="sourcePoint" />
            <mxPoint x="483" y="250" as="targetPoint" />
          </mxGeometry>
        </mxCell>
        <mxCell id="DSjT6oyzW38afCTZ1IZh-33" value="ZMQListener (MQConnection)" style="shape=umlLifeline;perimeter=lifelinePerimeter;whiteSpace=wrap;html=1;container=1;dropTarget=0;collapsible=0;recursiveResize=0;outlineConnect=0;portConstraint=eastwest;newEdgeStyle={&quot;edgeStyle&quot;:&quot;elbowEdgeStyle&quot;,&quot;elbow&quot;:&quot;vertical&quot;,&quot;curved&quot;:0,&quot;rounded&quot;:0};" parent="YGuV6R9-KsbICo-k-Tc9-13" vertex="1">
          <mxGeometry x="7.49" y="30" width="100" height="250" as="geometry" />
        </mxCell>
        <mxCell id="DSjT6oyzW38afCTZ1IZh-34" value="RabbitMQ receive" style="shape=flexArrow;endArrow=classic;html=1;rounded=0;width=18;endSize=8.33;" parent="YGuV6R9-KsbICo-k-Tc9-13" edge="1">
          <mxGeometry x="-0.0085" width="50" height="50" relative="1" as="geometry">
            <mxPoint x="-60" y="91" as="sourcePoint" />
            <mxPoint x="56.98999999999978" y="91" as="targetPoint" />
            <mxPoint as="offset" />
          </mxGeometry>
        </mxCell>
        <mxCell id="DSjT6oyzW38afCTZ1IZh-35" value="MqttSubscriber (AppThread)" style="shape=umlLifeline;perimeter=lifelinePerimeter;whiteSpace=wrap;html=1;container=1;dropTarget=0;collapsible=0;recursiveResize=0;outlineConnect=0;portConstraint=eastwest;newEdgeStyle={&quot;edgeStyle&quot;:&quot;elbowEdgeStyle&quot;,&quot;elbow&quot;:&quot;vertical&quot;,&quot;curved&quot;:0,&quot;rounded&quot;:0};" parent="YGuV6R9-KsbICo-k-Tc9-13" vertex="1">
          <mxGeometry x="110" y="30" width="100" height="250" as="geometry" />
        </mxCell>
        <mxCell id="DSjT6oyzW38afCTZ1IZh-36" value="HeartbeatFilter (ZMQRelay)" style="shape=umlLifeline;perimeter=lifelinePerimeter;whiteSpace=wrap;html=1;container=1;dropTarget=0;collapsible=0;recursiveResize=0;outlineConnect=0;portConstraint=eastwest;newEdgeStyle={&quot;edgeStyle&quot;:&quot;elbowEdgeStyle&quot;,&quot;elbow&quot;:&quot;vertical&quot;,&quot;curved&quot;:0,&quot;rounded&quot;:0};" parent="YGuV6R9-KsbICo-k-Tc9-13" vertex="1">
          <mxGeometry x="213" y="30" width="100" height="250" as="geometry" />
        </mxCell>
        <mxCell id="DSjT6oyzW38afCTZ1IZh-37" value="" style="html=1;points=[];perimeter=orthogonalPerimeter;outlineConnect=0;targetShapes=umlLifeline;portConstraint=eastwest;newEdgeStyle={&quot;edgeStyle&quot;:&quot;elbowEdgeStyle&quot;,&quot;elbow&quot;:&quot;vertical&quot;,&quot;curved&quot;:0,&quot;rounded&quot;:0};" parent="DSjT6oyzW38afCTZ1IZh-36" vertex="1">
          <mxGeometry x="45" y="50" width="10" height="80" as="geometry" />
        </mxCell>
        <mxCell id="DSjT6oyzW38afCTZ1IZh-40" value="update heartbeat" style="html=1;verticalAlign=bottom;endArrow=block;edgeStyle=elbowEdgeStyle;elbow=vertical;curved=0;rounded=0;" parent="YGuV6R9-KsbICo-k-Tc9-13" target="DSjT6oyzW38afCTZ1IZh-36" edge="1">
          <mxGeometry width="80" relative="1" as="geometry">
            <mxPoint x="60" y="100" as="sourcePoint" />
            <mxPoint x="140" y="100" as="targetPoint" />
          </mxGeometry>
        </mxCell>
        <mxCell id="DSjT6oyzW38afCTZ1IZh-41" value="update heartbeat" style="html=1;verticalAlign=bottom;endArrow=block;edgeStyle=elbowEdgeStyle;elbow=vertical;curved=0;rounded=0;" parent="YGuV6R9-KsbICo-k-Tc9-13" target="DSjT6oyzW38afCTZ1IZh-36" edge="1">
          <mxGeometry width="80" relative="1" as="geometry">
            <mxPoint x="161.5" y="140" as="sourcePoint" />
            <mxPoint x="364.5" y="140" as="targetPoint" />
          </mxGeometry>
        </mxCell>
        <mxCell id="DSjT6oyzW38afCTZ1IZh-32" value="EventProcessor (MQConnection)" style="shape=umlLifeline;perimeter=lifelinePerimeter;whiteSpace=wrap;html=1;container=1;dropTarget=0;collapsible=0;recursiveResize=0;outlineConnect=0;portConstraint=eastwest;newEdgeStyle={&quot;edgeStyle&quot;:&quot;elbowEdgeStyle&quot;,&quot;elbow&quot;:&quot;vertical&quot;,&quot;curved&quot;:0,&quot;rounded&quot;:0};" parent="YGuV6R9-KsbICo-k-Tc9-13" vertex="1">
          <mxGeometry x="320" y="30" width="100" height="250" as="geometry" />
        </mxCell>
        <mxCell id="DSjT6oyzW38afCTZ1IZh-38" value="" style="html=1;points=[];perimeter=orthogonalPerimeter;outlineConnect=0;targetShapes=umlLifeline;portConstraint=eastwest;newEdgeStyle={&quot;edgeStyle&quot;:&quot;elbowEdgeStyle&quot;,&quot;elbow&quot;:&quot;vertical&quot;,&quot;curved&quot;:0,&quot;rounded&quot;:0};" parent="DSjT6oyzW38afCTZ1IZh-32" vertex="1">
          <mxGeometry x="45" y="110" width="10" height="40" as="geometry" />
        </mxCell>
        <mxCell id="DSjT6oyzW38afCTZ1IZh-45" value="" style="html=1;points=[];perimeter=orthogonalPerimeter;outlineConnect=0;targetShapes=umlLifeline;portConstraint=eastwest;newEdgeStyle={&quot;edgeStyle&quot;:&quot;elbowEdgeStyle&quot;,&quot;elbow&quot;:&quot;vertical&quot;,&quot;curved&quot;:0,&quot;rounded&quot;:0};" parent="DSjT6oyzW38afCTZ1IZh-32" vertex="1">
          <mxGeometry x="45" y="164" width="10" height="78" as="geometry" />
        </mxCell>
        <mxCell id="DSjT6oyzW38afCTZ1IZh-46" value="identify output" style="html=1;align=left;spacingLeft=2;endArrow=block;rounded=0;edgeStyle=orthogonalEdgeStyle;curved=0;rounded=0;" parent="DSjT6oyzW38afCTZ1IZh-32" target="DSjT6oyzW38afCTZ1IZh-45" edge="1">
          <mxGeometry relative="1" as="geometry">
            <mxPoint x="50" y="144" as="sourcePoint" />
            <Array as="points">
              <mxPoint x="80" y="174" />
            </Array>
          </mxGeometry>
        </mxCell>
        <mxCell id="DSjT6oyzW38afCTZ1IZh-42" value="generate event" style="html=1;verticalAlign=bottom;endArrow=block;edgeStyle=elbowEdgeStyle;elbow=vertical;curved=0;rounded=0;" parent="YGuV6R9-KsbICo-k-Tc9-13" edge="1">
          <mxGeometry width="80" relative="1" as="geometry">
            <mxPoint x="268" y="149" as="sourcePoint" />
            <mxPoint x="369.5" y="149" as="targetPoint" />
          </mxGeometry>
        </mxCell>
        <mxCell id="DSjT6oyzW38afCTZ1IZh-47" value="RabbitMQ send" style="shape=flexArrow;endArrow=classic;html=1;rounded=0;width=14;endSize=11.67;endWidth=16;" parent="YGuV6R9-KsbICo-k-Tc9-13" edge="1">
          <mxGeometry x="-0.0085" width="50" height="50" relative="1" as="geometry">
            <mxPoint x="375" y="225" as="sourcePoint" />
            <mxPoint x="530" y="225" as="targetPoint" />
            <mxPoint as="offset" />
          </mxGeometry>
        </mxCell>
        <mxCell id="yk_Txdwg7BVkNjfgtiyE-2" value="MQTT send" style="shape=flexArrow;endArrow=classic;html=1;rounded=0;width=14;endSize=11.67;endWidth=16;" edge="1" parent="YGuV6R9-KsbICo-k-Tc9-13">
          <mxGeometry x="-0.0085" width="50" height="50" relative="1" as="geometry">
            <mxPoint x="375" y="260" as="sourcePoint" />
            <mxPoint x="530" y="260" as="targetPoint" />
            <mxPoint as="offset" />
          </mxGeometry>
        </mxCell>
        <mxCell id="YGuV6R9-KsbICo-k-Tc9-15" value="ngrok / Tailscale" style="sketch=0;pointerEvents=1;shadow=0;dashed=0;html=1;strokeColor=none;fillColor=#505050;labelPosition=center;verticalLabelPosition=bottom;verticalAlign=top;outlineConnect=0;align=center;shape=mxgraph.office.servers.reverse_proxy;horizontal=1;" parent="1" vertex="1">
          <mxGeometry x="-189.99999999999994" y="229.99999999999994" width="41" height="53" as="geometry" />
        </mxCell>
        <mxCell id="YGuV6R9-KsbICo-k-Tc9-16" value="" style="endArrow=classic;startArrow=classic;html=1;rounded=0;" parent="1" source="YGuV6R9-KsbICo-k-Tc9-3" target="YGuV6R9-KsbICo-k-Tc9-15" edge="1">
          <mxGeometry width="50" height="50" relative="1" as="geometry">
            <mxPoint x="-42.19999999999999" y="48.89999999999998" as="sourcePoint" />
            <mxPoint x="-182.2" y="139.89999999999998" as="targetPoint" />
          </mxGeometry>
        </mxCell>
        <mxCell id="YGuV6R9-KsbICo-k-Tc9-19" value="relay / electronics" style="sketch=0;outlineConnect=0;fontColor=#ffffff;gradientColor=none;fillColor=#3F8624;strokeColor=none;dashed=0;verticalLabelPosition=bottom;verticalAlign=top;align=center;html=1;fontSize=12;fontStyle=0;aspect=fixed;pointerEvents=1;shape=mxgraph.aws4.iot_thing_relay;" parent="1" vertex="1">
          <mxGeometry x="-110" y="892" width="78" height="78" as="geometry" />
        </mxCell>
        <mxCell id="YGuV6R9-KsbICo-k-Tc9-20" value="I/O expander" style="endArrow=classic;html=1;rounded=0;exitX=0.16;exitY=0.87;exitDx=0;exitDy=0;exitPerimeter=0;" parent="1" source="YGuV6R9-KsbICo-k-Tc9-18" target="YGuV6R9-KsbICo-k-Tc9-19" edge="1">
          <mxGeometry x="0.1618" y="21" width="50" height="50" relative="1" as="geometry">
            <mxPoint x="437" y="790" as="sourcePoint" />
            <mxPoint x="487" y="740" as="targetPoint" />
            <mxPoint as="offset" />
          </mxGeometry>
        </mxCell>
        <mxCell id="YGuV6R9-KsbICo-k-Tc9-21" value="remote-monitor" style="swimlane;startSize=23;" parent="1" vertex="1">
          <mxGeometry x="77" y="790" width="160" height="150" as="geometry" />
        </mxCell>
        <mxCell id="YGuV6R9-KsbICo-k-Tc9-18" value="Rasperry Pi with Shields" style="outlineConnect=0;dashed=0;verticalLabelPosition=top;verticalAlign=bottom;align=center;html=1;shape=mxgraph.aws3.generic;fillColor=#5294CF;gradientColor=none;labelPosition=center;" parent="YGuV6R9-KsbICo-k-Tc9-21" vertex="1">
          <mxGeometry x="37.5" y="50" width="79.5" height="79.5" as="geometry" />
        </mxCell>
        <mxCell id="YGuV6R9-KsbICo-k-Tc9-35" value="RabbitMQ" style="shape=flexArrow;endArrow=classic;startArrow=classic;html=1;rounded=0;exitX=1;exitY=0.5;exitDx=0;exitDy=0;width=20;startSize=5.33;" parent="1" source="YGuV6R9-KsbICo-k-Tc9-21" edge="1">
          <mxGeometry width="100" height="100" relative="1" as="geometry">
            <mxPoint x="630" y="940" as="sourcePoint" />
            <mxPoint x="320" y="865" as="targetPoint" />
          </mxGeometry>
        </mxCell>
        <mxCell id="YGuV6R9-KsbICo-k-Tc9-36" value="snapshot-processor" style="swimlane;whiteSpace=wrap;html=1;" parent="1" vertex="1">
          <mxGeometry x="-120" y="374" width="440" height="380" as="geometry" />
        </mxCell>
        <mxCell id="YGuV6R9-KsbICo-k-Tc9-44" value="" style="pointerEvents=1;shadow=0;dashed=0;html=1;strokeColor=none;fillColor=#4495D1;labelPosition=center;verticalLabelPosition=bottom;verticalAlign=top;align=center;outlineConnect=0;shape=mxgraph.veeam.sd_card;" parent="YGuV6R9-KsbICo-k-Tc9-36" vertex="1">
          <mxGeometry x="253.8" y="271.2" width="32.4" height="38.8" as="geometry" />
        </mxCell>
        <mxCell id="DSjT6oyzW38afCTZ1IZh-2" value="Snapshot (ZMQRelay)" style="shape=umlLifeline;perimeter=lifelinePerimeter;whiteSpace=wrap;html=1;container=1;dropTarget=0;collapsible=0;recursiveResize=0;outlineConnect=0;portConstraint=eastwest;newEdgeStyle={&quot;edgeStyle&quot;:&quot;elbowEdgeStyle&quot;,&quot;elbow&quot;:&quot;vertical&quot;,&quot;curved&quot;:0,&quot;rounded&quot;:0};" parent="YGuV6R9-KsbICo-k-Tc9-36" vertex="1">
          <mxGeometry x="113" y="30" width="100" height="160" as="geometry" />
        </mxCell>
        <mxCell id="DSjT6oyzW38afCTZ1IZh-17" value="" style="html=1;points=[];perimeter=orthogonalPerimeter;outlineConnect=0;targetShapes=umlLifeline;portConstraint=eastwest;newEdgeStyle={&quot;edgeStyle&quot;:&quot;elbowEdgeStyle&quot;,&quot;elbow&quot;:&quot;vertical&quot;,&quot;curved&quot;:0,&quot;rounded&quot;:0};" parent="DSjT6oyzW38afCTZ1IZh-2" vertex="1">
          <mxGeometry x="45" y="50" width="10" height="50" as="geometry" />
        </mxCell>
        <mxCell id="DSjT6oyzW38afCTZ1IZh-3" value="" style="sketch=0;outlineConnect=0;fontColor=#232F3E;gradientColor=none;fillColor=#067F68;strokeColor=none;dashed=0;verticalLabelPosition=bottom;verticalAlign=top;align=center;html=1;fontSize=12;fontStyle=0;aspect=fixed;shape=mxgraph.aws4.transfer_for_ftp_resource;" parent="YGuV6R9-KsbICo-k-Tc9-36" vertex="1">
          <mxGeometry x="117.49000000000001" y="310" width="56.51" height="58" as="geometry" />
        </mxCell>
        <mxCell id="DSjT6oyzW38afCTZ1IZh-5" value="" style="endArrow=classic;html=1;rounded=0;" parent="YGuV6R9-KsbICo-k-Tc9-36" source="DSjT6oyzW38afCTZ1IZh-3" target="YGuV6R9-KsbICo-k-Tc9-44" edge="1">
          <mxGeometry width="50" height="50" relative="1" as="geometry">
            <mxPoint x="148" y="30" as="sourcePoint" />
            <mxPoint x="620" y="210" as="targetPoint" />
          </mxGeometry>
        </mxCell>
        <mxCell id="DSjT6oyzW38afCTZ1IZh-8" value="ZMQListener (MQConnection)" style="shape=umlLifeline;perimeter=lifelinePerimeter;whiteSpace=wrap;html=1;container=1;dropTarget=0;collapsible=0;recursiveResize=0;outlineConnect=0;portConstraint=eastwest;newEdgeStyle={&quot;edgeStyle&quot;:&quot;elbowEdgeStyle&quot;,&quot;elbow&quot;:&quot;vertical&quot;,&quot;curved&quot;:0,&quot;rounded&quot;:0};" parent="YGuV6R9-KsbICo-k-Tc9-36" vertex="1">
          <mxGeometry x="7.49" y="30" width="100" height="160" as="geometry" />
        </mxCell>
        <mxCell id="YGuV6R9-KsbICo-k-Tc9-37" value="" style="dashed=0;outlineConnect=0;html=1;align=center;labelPosition=center;verticalLabelPosition=bottom;verticalAlign=top;shape=mxgraph.weblogos.google_drive" parent="YGuV6R9-KsbICo-k-Tc9-36" vertex="1">
          <mxGeometry x="310" y="290" width="44" height="38" as="geometry" />
        </mxCell>
        <mxCell id="YGuV6R9-KsbICo-k-Tc9-38" value="Amazon Rekognition" style="sketch=0;outlineConnect=0;fontColor=#232F3E;gradientColor=none;strokeColor=#ffffff;fillColor=#232F3E;dashed=0;verticalLabelPosition=middle;verticalAlign=bottom;align=center;html=1;whiteSpace=wrap;fontSize=10;fontStyle=1;spacing=3;shape=mxgraph.aws4.productIcon;prIcon=mxgraph.aws4.rekognition;" parent="YGuV6R9-KsbICo-k-Tc9-36" vertex="1">
          <mxGeometry x="240" y="160" width="60" height="90" as="geometry" />
        </mxCell>
        <mxCell id="DSjT6oyzW38afCTZ1IZh-11" value="" style="endArrow=classic;startArrow=classic;html=1;rounded=0;" parent="YGuV6R9-KsbICo-k-Tc9-36" source="YGuV6R9-KsbICo-k-Tc9-44" target="YGuV6R9-KsbICo-k-Tc9-38" edge="1">
          <mxGeometry width="50" height="50" relative="1" as="geometry">
            <mxPoint x="390" y="340" as="sourcePoint" />
            <mxPoint x="270" y="260" as="targetPoint" />
          </mxGeometry>
        </mxCell>
        <mxCell id="DSjT6oyzW38afCTZ1IZh-6" value="" style="endArrow=classic;html=1;rounded=0;" parent="YGuV6R9-KsbICo-k-Tc9-36" source="YGuV6R9-KsbICo-k-Tc9-44" target="YGuV6R9-KsbICo-k-Tc9-37" edge="1">
          <mxGeometry width="50" height="50" relative="1" as="geometry">
            <mxPoint x="10" y="150" as="sourcePoint" />
            <mxPoint x="170" y="420" as="targetPoint" />
          </mxGeometry>
        </mxCell>
        <mxCell id="DSjT6oyzW38afCTZ1IZh-12" value="RabbitMQRelay (AppThread)" style="shape=umlLifeline;perimeter=lifelinePerimeter;whiteSpace=wrap;html=1;container=1;dropTarget=0;collapsible=0;recursiveResize=0;outlineConnect=0;portConstraint=eastwest;newEdgeStyle={&quot;edgeStyle&quot;:&quot;elbowEdgeStyle&quot;,&quot;elbow&quot;:&quot;vertical&quot;,&quot;curved&quot;:0,&quot;rounded&quot;:0};" parent="YGuV6R9-KsbICo-k-Tc9-36" vertex="1">
          <mxGeometry x="326" y="30" width="100" height="160" as="geometry" />
        </mxCell>
        <mxCell id="DSjT6oyzW38afCTZ1IZh-21" value="" style="html=1;points=[];perimeter=orthogonalPerimeter;outlineConnect=0;targetShapes=umlLifeline;portConstraint=eastwest;newEdgeStyle={&quot;edgeStyle&quot;:&quot;elbowEdgeStyle&quot;,&quot;elbow&quot;:&quot;vertical&quot;,&quot;curved&quot;:0,&quot;rounded&quot;:0};" parent="DSjT6oyzW38afCTZ1IZh-12" vertex="1">
          <mxGeometry x="45" y="80" width="10" height="50" as="geometry" />
        </mxCell>
        <mxCell id="DSjT6oyzW38afCTZ1IZh-15" value="trigger snapshot" style="html=1;verticalAlign=bottom;endArrow=block;edgeStyle=elbowEdgeStyle;elbow=vertical;curved=0;rounded=0;" parent="YGuV6R9-KsbICo-k-Tc9-36" target="DSjT6oyzW38afCTZ1IZh-2" edge="1">
          <mxGeometry width="80" relative="1" as="geometry">
            <mxPoint x="56.19999999999999" y="100" as="sourcePoint" />
            <mxPoint x="136.2" y="100" as="targetPoint" />
          </mxGeometry>
        </mxCell>
        <mxCell id="DSjT6oyzW38afCTZ1IZh-19" value="enrich" style="html=1;verticalAlign=bottom;endArrow=block;edgeStyle=elbowEdgeStyle;elbow=vertical;curved=0;rounded=0;" parent="YGuV6R9-KsbICo-k-Tc9-36" edge="1">
          <mxGeometry width="80" relative="1" as="geometry">
            <mxPoint x="168" y="113" as="sourcePoint" />
            <mxPoint x="268.5" y="113" as="targetPoint" />
          </mxGeometry>
        </mxCell>
        <mxCell id="DSjT6oyzW38afCTZ1IZh-9" value="ObjectDetector (ZMQRelay)" style="shape=umlLifeline;perimeter=lifelinePerimeter;whiteSpace=wrap;html=1;container=1;dropTarget=0;collapsible=0;recursiveResize=0;outlineConnect=0;portConstraint=eastwest;newEdgeStyle={&quot;edgeStyle&quot;:&quot;elbowEdgeStyle&quot;,&quot;elbow&quot;:&quot;vertical&quot;,&quot;curved&quot;:0,&quot;rounded&quot;:0};" parent="YGuV6R9-KsbICo-k-Tc9-36" vertex="1">
          <mxGeometry x="220" y="30" width="100" height="130" as="geometry" />
        </mxCell>
        <mxCell id="DSjT6oyzW38afCTZ1IZh-20" value="" style="html=1;points=[];perimeter=orthogonalPerimeter;outlineConnect=0;targetShapes=umlLifeline;portConstraint=eastwest;newEdgeStyle={&quot;edgeStyle&quot;:&quot;elbowEdgeStyle&quot;,&quot;elbow&quot;:&quot;vertical&quot;,&quot;curved&quot;:0,&quot;rounded&quot;:0};" parent="DSjT6oyzW38afCTZ1IZh-9" vertex="1">
          <mxGeometry x="45" y="60" width="10" height="50" as="geometry" />
        </mxCell>
        <mxCell id="DSjT6oyzW38afCTZ1IZh-22" value="device event" style="html=1;verticalAlign=bottom;endArrow=block;edgeStyle=elbowEdgeStyle;elbow=vertical;curved=0;rounded=0;" parent="YGuV6R9-KsbICo-k-Tc9-36" edge="1">
          <mxGeometry width="80" relative="1" as="geometry">
            <mxPoint x="275" y="126" as="sourcePoint" />
            <mxPoint x="371" y="126" as="targetPoint" />
          </mxGeometry>
        </mxCell>
        <mxCell id="DSjT6oyzW38afCTZ1IZh-14" value="RabbitMQ send" style="shape=flexArrow;endArrow=classic;html=1;rounded=0;width=18;endSize=8.33;" parent="YGuV6R9-KsbICo-k-Tc9-36" edge="1">
          <mxGeometry width="50" height="50" relative="1" as="geometry">
            <mxPoint x="380" y="144.5" as="sourcePoint" />
            <mxPoint x="496.9899999999998" y="144.5" as="targetPoint" />
          </mxGeometry>
        </mxCell>
        <mxCell id="DSjT6oyzW38afCTZ1IZh-4" value="push" style="endArrow=classic;html=1;rounded=0;exitX=0.985;exitY=0.98;exitDx=0;exitDy=0;exitPerimeter=0;" parent="1" source="YGuV6R9-KsbICo-k-Tc9-2" target="DSjT6oyzW38afCTZ1IZh-3" edge="1">
          <mxGeometry width="50" height="50" relative="1" as="geometry">
            <mxPoint x="450" y="634" as="sourcePoint" />
            <mxPoint x="-20" y="364" as="targetPoint" />
          </mxGeometry>
        </mxCell>
        <mxCell id="DSjT6oyzW38afCTZ1IZh-13" value="RabbitMQ receive" style="shape=flexArrow;endArrow=classic;html=1;rounded=0;width=18;endSize=8.33;" parent="1" edge="1">
          <mxGeometry width="50" height="50" relative="1" as="geometry">
            <mxPoint x="-180" y="465" as="sourcePoint" />
            <mxPoint x="-63.01000000000022" y="465" as="targetPoint" />
          </mxGeometry>
        </mxCell>
        <mxCell id="DSjT6oyzW38afCTZ1IZh-23" value="pull" style="endArrow=classic;startArrow=classic;html=1;rounded=0;exitX=0.985;exitY=0.02;exitDx=0;exitDy=0;exitPerimeter=0;" parent="1" source="YGuV6R9-KsbICo-k-Tc9-2" target="YGuV6R9-KsbICo-k-Tc9-44" edge="1">
          <mxGeometry width="50" height="50" relative="1" as="geometry">
            <mxPoint x="160" y="734" as="sourcePoint" />
            <mxPoint x="210" y="684" as="targetPoint" />
          </mxGeometry>
        </mxCell>
        <mxCell id="DSjT6oyzW38afCTZ1IZh-48" value="" style="endArrow=none;html=1;rounded=0;" parent="1" edge="1">
          <mxGeometry width="50" height="50" relative="1" as="geometry">
            <mxPoint x="358" y="140" as="sourcePoint" />
            <mxPoint x="-122" y="140" as="targetPoint" />
          </mxGeometry>
        </mxCell>
        <mxCell id="DSjT6oyzW38afCTZ1IZh-39" value="MQTT receive" style="shape=flexArrow;endArrow=classic;html=1;rounded=0;width=18;endSize=8.33;" parent="1" edge="1">
          <mxGeometry x="-0.0085" width="50" height="50" relative="1" as="geometry">
            <mxPoint x="-183" y="-16" as="sourcePoint" />
            <mxPoint x="36.5" y="-16" as="targetPoint" />
            <mxPoint as="offset" />
          </mxGeometry>
        </mxCell>
      </root>
    </mxGraphModel>
  </diagram>
</mxfile>
